<svg width="583" height="549" viewBox="0 0 583 549" fill="none" xmlns="http://www.w3.org/2000/svg">
<g clip-path="url(#clip0_12028_1015)">
<path d="M563.31 2.7301C419.23 121.46 294.3 265.51 195.86 427.47C184.25 408.82 172.16 390.44 159.39 372.28C141.89 347.79 123.74 323.75 101.38 302.83C78.94 281.68 46.77 263.29 16.11 282.07C-17.91 305.06 7.40996 352.49 41.78 343.64C49.03 348.87 56.02 356.45 62.15 363.68C75.01 379.01 86.87 396.44 97.86 413.66C120.63 449.62 141.42 487.84 160.49 526.05C164.91 534.37 171.29 541.39 180.53 545.35C200.43 554.05 223.61 544.98 232.31 525.08C313.88 338.58 431.92 165.95 579.16 20.1801C589.59 8.7701 574.65 -6.2399 563.31 2.7201V2.7301Z" fill="black"/>
</g>
<defs>
<clipPath id="clip0_12028_1015">
<rect width="582.68" height="548.66" fill="white"/>
</clipPath>
</defs>
</svg>
